<svg xmlns="http://www.w3.org/2000/svg" width="864" height="864">
  <path fill-rule="evenodd" d="M364.978 296.982c-9.237-8.388-18.143-16.915-27.525-24.88-11.441-9.714-12.709-21.936-10.607-35.672 3.336-21.793 13.282-40.652 25.217-58.634 16.146-24.328 36.827-44.593 62.19-58.506 38.77-21.267 80.12-30.271 124.07-17.118.908.272 1.797.62 2.72.823 1.291.283 2.604.462 4.602.805.705-10.437 1.391-20.808 2.111-31.175.408-5.894 3.933-8.5 9.007-6.662 3.984 1.443 4.424 4.658 4.195 8.324-.648 10.415-1.396 20.833-1.603 31.26-.041 2.05 1.681 4.834 3.439 6.079 3.966 2.808 8.463 4.864 13.3 7.532.821-11.48 1.688-22.351 2.356-33.234.885-14.391 1.627-28.79 2.404-43.187.178-3.292.018-7.107 4.665-6.927 4.37.17 7.803 2.517 7.948 7.31.196 6.452.064 12.933-.313 19.379-1.173 20.08-2.716 40.14-3.62 60.23-.142 3.145 1.396 7.402 3.678 9.465 32.472 29.371 50.014 65.792 50.268 109.535.113 19.259-2.76 38.567-4.946 57.776-.354 3.107-3.64 6.75-6.556 8.546-12.446 7.664-25.265 14.723-37.94 22.017-1.29.742-2.529 1.572-4.249 2.646 7.188 5.545 14.168 10.645 20.84 16.123 49.775 40.863 81.548 93.209 94.092 155.96 19.288 96.49-5.18 181.617-73.152 253.041-40.11 42.148-89.905 68.542-147.307 77.249-98.159 14.892-181.557-14.891-248.269-88.88-35.635-39.521-57.486-86.11-65.543-138.665-12.296-80.191 6.708-152.646 56.308-216.87 35.031-45.36 80.632-75.485 135.184-92.401.723-.224 1.459-.417 2.163-.69.339-.135.619-.42.873-.599z" clip-rule="evenodd"/>
  <g fill="#A7A9AC" fill-rule="evenodd" clip-rule="evenodd">
    <path d="M334.893 252.021c101.468-9.031 198.623 5.578 293.858 39.804-.354-.775-.055-.435-.081-.124-.115 1.303-.328 2.598-.492 3.814-.551.175-.96.464-1.244.372-94.12-30.761-190.575-44.958-289.616-40.967-.545.022-1.145-1.322-2.425-2.899zM286.566 465.885c14.706 6.327 25.458 16.71 34.338 28.96 5.312 7.327 9.298 15.604 14.04 23.357 1.738 2.841 1.155 4.345-1.386 6.542-13.772 11.907-27.312 24.086-40.888 36.221-3.395 3.034-4.099 6.11-3.478 11.3 1.874 15.66 1.94 31.507-6.03 46.11-9.468 17.348-18.597 17.645-33.168 6.196-6.661-5.234-11.21-13.794-15.241-21.606-8.975-17.393-11.451-36.021-7.664-55.347.365-1.861.74-3.736 1.332-5.532 5.524-16.76 17.402-22.041 33.975-15.15 6.174 2.567 7.356 2.276 9.203-4.377 4.7-16.933 9.054-33.962 13.54-50.954.472-1.793.898-3.595 1.427-5.72zm-3.917 124.157c-.22-18.249-7.468-33.775-17.567-48.067-3.597-5.09-8.987-9.087-15.955-8.07-7.273 1.06-10.692 6.57-13.013 12.897-3.359 9.159-3.314 18.623-2.09 28.088 1.857 14.356 6.094 27.926 16.629 38.396 10.463 10.397 24.399 6.908 29.068-7.155 1.701-5.123 1.993-10.712 2.928-16.089zM535.154 344.107c-.813-2.539-1.461-4.107-1.812-5.739-1.09-5.072 1.926-10.387 6.97-10.393 5.676-.007 11.907.435 16.908 2.785 8.881 4.172 17.04 9.893 25.454 15.042 4.41 2.7 7.033 11.264 4.634 15.608-.602 1.088-2.318 1.672-3.632 2.233-5.58 2.384-6.668 5.542-3.562 10.725.389.648.771 1.368 1.338 1.832 7.666 6.272 4.559 13.766 2.55 21.831l-23.795-13.477-18.345 23.637-35.626-34.196c-.96-5.052-.918-8.808-2.398-11.812-3.271-6.633-4.981-14.51-12.842-18.064-1.108-.5-1.421-2.757-2.421-4.876 16.075.32 30.737 6.367 46.579 4.864z"/>
    <path d="M584.904 370.562c10.528-1.997 9.064-9.429 9.979-16.544 3.902 3.318 7.26 5.979 10.398 8.878 7.516 6.941 14.948 13.974 22.377 21.01 4.284 4.059 5.767 13.473 2.931 19.706-2.454 5.397-7.206 7.57-12.646 6.372-8.204-1.806-16.255-4.369-24.254-6.974-1.03-.336-1.617-2.787-1.922-4.353-.239-1.226.06-2.676.491-3.895 3.264-9.205 2.814-17.48-7.354-24.2zM645.341 687.456c-11.763 30.075-56.624 89.866-70.754 93.395 6.487-9.531 12.484-18.36 18.499-27.177 11.879-17.413 23.782-34.808 35.632-52.24 1.269-1.866 2.478-3.839 3.312-5.923 2.354-5.893 6.614-8.412 13.311-8.055zM495.675 764.222l18.915 2.947c.776 11.922-3.454 24.629 9.533 33.197-7.885 2.879-14.889 5.641-22.063 7.849-1.159.355-3.737-1.383-4.536-2.79-5.203-9.168-5.278-19.219-4.204-29.32.395-3.718 1.438-7.369 2.355-11.883zM613.731 692.438c-20.253 31.757-40.327 63.193-66.873 89.733l-1.816-1.187c.572-1.178 1.028-2.432 1.735-3.522 16.994-26.282 34.278-52.382 50.846-78.93 4.096-6.564 8.672-7.922 16.108-6.094zM234.178 468.161c.693 12.297 1.438 23.595 1.825 34.904.045 1.331-1.572 3.382-2.919 3.991-12.956 5.862-13.62 4.757-16.577-9.043-2.217-10.346.879-17.149 8.783-22.904 2.894-2.107 5.648-4.405 8.888-6.948zM541.595 737.209c-3.128 3.966-6.167 8.018-9.475 11.837-.648.749-2.524 1.122-3.52.773-8.862-3.105-17.654-6.414-27.246-9.949l16.113-17.714 24.128 15.053zM344.255 567.318v20.123c-7.979-1.632-15.514-2.947-22.926-4.765-5.451-1.337-2.552-5.918-2.651-9.064-.081-2.563.678-5.145 4.452-5.222 6.801-.139 13.593-.667 21.125-1.072zM273.361 651.456c2.481 4.865 4.79 9.853 7.516 14.601 2.608 4.545 5.649 8.84 8.876 13.826-4.639.973-8.807 2.073-13.044 2.578-1.09.13-2.953-1.352-3.518-2.542a198.482 198.482 0 0 1-6.44-15.164c-3.116-8.273-2.04-10.302 6.61-13.299zM467.157 162.22c9.72-15.463 8.833-29.944-3.803-43.602 11.782 1.475 23.42 18.28 20.446 29.116a4.743 4.743 0 0 1-1.474 2.267c-5.02 4.118-10.104 8.156-15.169 12.219z"/>
    <path d="M412.595 174.151c35.429.287 55.56-24.49 47.664-46.645 5.031 4.337 6.817 12.233 4.507 19.917-5.797 19.275-31.841 32.778-52.171 26.728zM188.565 566.045c8.77 4.325 18.176 7.081 17.469 19.166-14.126 3.171-18.671-1.472-17.469-19.166zM500.142 111.854c2.028-4.667 4.904-5.548 9.044-4.561 4.954 1.183 10.025 1.985 15.09 2.567 3.572.411 4.62 1.955 3.346 6.044-9.006-1.326-18.07-2.663-27.48-4.05zM496.018 107.34c-2.9 1.744-4.634 3.658-6.43 3.719-9.151.312-18.319.144-27.495-.245 10.241-5.349 20.987-6.109 33.925-3.474zM535.092 111.815l25.76 11.345-.545 1.41c-7.729-2.101-15.512-4.034-23.144-6.444-1.517-.479-2.457-2.785-3.663-4.248l1.592-2.063z"/>
  </g>
  <g fill="#F7941E" fill-rule="evenodd" clip-rule="evenodd">
    <path d="M674.704 455.536c5.056 14.555 9.511 27.376 14.511 41.763-9.292 2.253-17.721 5.069-26.373 6.256-30.321 4.158-58.916-3.658-86.412-15.085-43.291-17.991-80.981-44.055-109.844-81.632-15.415-20.069-27.326-41.887-32.349-67.076-2.417-12.118-1.327-23.781 3.034-35.155.681-1.777 3.297-4.111 4.9-4.024 10.56.572 21.087 1.737 32.509 2.79-14.186 19.415-7.759 38.034 1.361 55.635 18.36 35.433 46.323 62.24 79.338 84.025 20.58 13.581 42.348 24.842 66.923 28.852 9.75 1.59 20.025 1.493 29.881.452 9.393-.993 16.729-6.809 22.521-16.801zM293.544 457.843c7.669-9.488 15.032-18.388 22.138-27.489 2.876-3.685 5.473-3.323 9.165-1.197 16.746 9.644 29.691 23.073 39.268 39.647 34.349 59.45 36.821 120.738 10.009 183.568-.286.671-.844 1.227-1.587 2.277-8.408-6.038-16.82-11.823-24.847-18.1-1.334-1.042-1.881-4.52-1.283-6.389 7.88-24.638 10.083-49.77 7.39-75.428-4.234-40.34-21.742-72.649-56.836-94.394-.797-.491-1.522-1.104-3.417-2.495zm71.329 22.838c-.835-2.02-1.384-4.569-2.781-6.51-6.083-8.448-11.784-17.296-18.79-24.928-12.388-13.496-12.679-13.098-26.506-.805-3.324 2.956-3.336 5.245-.556 8.577 10.069 12.066 19.858 24.365 29.934 36.427 1.286 1.538 3.639 3.06 5.497 3.059 3.526 0 13.177-11.949 13.202-15.82zM440.473 744.974c8.914 4.203 13.053.941 17.315-4.94 20.029-27.64 43.609-51.602 73.534-68.759 9.393-5.384 9.357-5.952 3.191-14.497-.532-.738-1.045-1.49-1.93-2.757l33.938-18.21 8.545 31.695c-15.258 10.719-30.533 20.389-44.603 31.573-23.557 18.727-43.887 40.48-56.155 68.539-2.789 6.378-4.963 13.209-6.162 20.053-2.284 13.021.128 24.921 12.573 34.083-7.898 1.212-14.543 2.416-21.234 3.213-7.289.867-12.895-2.787-17.544-7.812-9.843-10.635-14.865-23.185-11.638-37.619 2.543-11.37 6.535-22.415 10.17-34.562zM369.864 660.977c-14.946 27.081-33.914 48.589-64.296 57.636-15.594 4.644-30.692 4.096-45.548-2.166-2.263-.954-4.575-3.327-5.513-5.603-2.92-7.081-5.191-14.431-7.862-22.104 46.095 12.381 74.653-9.273 95.718-47.272l27.501 19.509zM312.413 422.701c-8.042 10.954-15.239 20.941-22.72 30.709-.935 1.22-3.521 2.035-5.101 1.742-5.393-1-10.641-2.748-16.011-3.901-14.44-3.103-26.915 2.345-38.709 9.65-17.712 10.972-29.493 27.082-38.256 45.637-1.206 2.551-2.312 5.149-4.471 7.372 1.763-5.186 3.299-10.463 5.327-15.544 9.779-24.503 22.607-47.009 44.441-62.875 16.357-11.887 34.467-19.453 55.233-17.348 6.846.694 13.529 2.996 20.267 4.558zM416.911 201.436c-1.31 6.88-2.744 13.164-3.651 19.522-.906 6.352-1.284 12.779-1.952 19.799h-48.225c.583-7.711 1.436-15.562 1.604-23.427.045-2.141-1.766-6.017-3.077-6.175-3.989-.48-10.125-3.034-11.709 2.137-2.829 9.229-4.343 18.988-2.623 29.502l-10.798 1.457c3.042-8.979 6.626-17.103 8.476-25.604 2.624-12.056 10.264-16.172 21.527-17.638 16.644-2.168 33.139-3.213 50.428.427zM577.578 652.188c20.447-10.705 41.101-19.106 63.771-20.767 8.543-.625 17.264.359 25.831 1.286 3.21.348 6.456 2.241 9.263 4.078 7.4 4.845 7.864 6.601 4.938 14.82-1.519 4.266-3.153 8.49-4.863 13.081-10.342-21.355-28.43-22.212-46.683-17.494-14.913 3.854-29.138 10.383-43.652 15.768-1.58.587-3.054 1.459-5.213 2.507l-3.392-13.279z"/>
    <path d="M575.631 644.391l-3.298-11.086c10.115-3.471 19.98-7.107 30.003-10.238 17.294-5.402 35.03-9.012 53.169-7.456 9.474.812 18.752 3.999 28.093 6.221 4.981 1.187 7.014 3.982 4.543 9.069-.732 1.508-1.041 3.221-1.746 5.488-6.859-6.306-14.47-10.479-23.528-11.855-15.914-2.419-31.465-.56-46.525 4.478-13.566 4.536-26.796 10.077-40.711 15.379zM246.65 709.921c-24.447-11.458-50.278-48.029-55.43-78.748.788 1.42 1.623 2.817 2.357 4.266 9.714 19.157 22.813 35.278 41.173 46.911 2.425 1.537 4.446 4.508 5.498 7.256 2.419 6.322 4.125 12.916 6.402 20.315zM532.604 255.762l3.864-19.123 25.217 6.696-4.152 18.469-24.929-6.042zM629.381 284.627l-12-3.971 3.453-17.247c10.073 2.682 10.396 3.469 8.547 21.218zM582.453 269.378c-.93-1.134-2.789-2.416-2.637-3.379 1.012-6.38 2.456-12.691 4.85-18.896 2.174 7.199-.467 14.121-.655 21.138-.52.38-1.038.759-1.558 1.137z"/>
  </g>
  <g fill="#FFF" fill-rule="evenodd" clip-rule="evenodd">
    <path d="M418.38 772.854c-33.853-9.608-63.022-26.052-87.282-49.83 9.417-8.053 19.116-15.176 27.416-23.669 21.81-22.315 32.584-50.441 39.736-80.109 13.88-57.575 3.998-111.455-26.189-162.691 23.082-20.016 48.059-37.698 75.269-53.496 3.021 3.706 6.087 7.467 9.151 11.23 40.272 49.46 90.693 83.085 153.149 97.684 9.017 2.107 18.327 3.053 27.55 4.123 3.314.384 4.683 1.716 5.119 4.792 3.604 25.39 7.012 50.733 1.636 76.38-.936 4.46-2.585 6.14-6.744 6.478-32.917 2.678-63.295 13.604-92.258 28.856-44.32 23.341-81.876 54.375-108.971 97.06-8.298 13.069-13.9 27.334-17.582 43.192zm189.453-212.907c2.077 5.267 3.182 10.398 5.906 14.438 4.341 6.438 11.844 5.419 15.6-1.397 4.777-8.671 2.021-20.914-2.782-26.824-3.796-4.67-9.1-5.102-12.508-.229-2.787 3.983-4.077 9.012-6.216 14.012zM420.052 719.068c-.355-.872-.928-2.878-1.933-4.637-4.172-7.298-10.602-11.722-18.587-13.938-6.821-1.894-11.715 2.907-10.121 9.803 1.948 8.427 12.726 17.537 21.423 18.108 5.752.379 9.386-2.826 9.218-9.336zM379.748 307.963c0 6.646-.098 12.308.026 17.965.135 6.119 1.474 7.339 7.599 6.86 10.947-.855 21.884-1.85 33.382-2.833 1.384 24.438 10.602 45.881 22.877 66.343-13.631 8.554-27.182 16.22-39.791 25.207-12.472 8.889-23.993 19.113-36.48 29.195-18.389-23.58-41.657-41.502-73.305-44.685-32.114-3.23-57.83 10.632-80.373 32.256 16.326-32.927 39.021-60.552 68.171-82.917 28.988-22.241 61.096-38 97.894-47.391zm-9.847 68.785c3.707-1.204 8.049-1.591 10.939-3.843 2.788-2.172 5.714-6.348 5.561-9.497-.152-3.135-3.462-7.53-6.462-8.766-4.029-1.66-9.302-1.79-13.661-.836-7.578 1.657-12.167 7.782-11.188 12.949 1.053 5.553 6.659 9.099 14.811 9.993zM266.157 682.822c-12.117-1.048-22.597-4.929-31.555-11.849-25.786-19.917-40.135-46.511-44.43-78.671-.067-.502.058-1.029.114-1.857 5.235.738 10.237 1.687 15.283 2.094 6.502.524 8.374-2.205 7.423-8.611-1.542-10.399-6.539-17.548-16.941-20.58-4.753-1.386-7.05-4.623-6.664-9.85 1.519-20.536 6.811-39.812 18.805-58.346 1.191 5.479 1.898 9.838 3.11 14.052 1.877 6.53 5.079 9.054 11.714 7.999 5.343-.85 10.815-2.481 15.522-5.058 2.337-1.278 4.294-5.444 4.333-8.333.148-10.812-.343-21.651-1.042-32.451-.412-6.35 2.598-9.337 8.215-10.996 8.999-2.658 17.7-1.165 26.276 1.649 1.016.333 2.28 2.64 2.028 3.699-4.293 18.024-8.807 35.996-13.36 54.334-3.904-1.226-6.708-2.279-9.597-2.982-11.688-2.845-21.414.35-28.818 9.898-6.146 7.927-8.749 17.227-9.482 27.036-1.692 22.646 3.247 43.775 15.065 63.228 4.715 7.762 10.746 14.203 18.66 18.844 14.004 8.212 28.285 5 37.102-8.689 8.38-13.013 10.956-27.662 9.283-42.626-1.153-10.316-.643-18.215 8.687-25.188 11.501-8.598 21.642-19.015 33.769-29.901l5.464 30.882c-8.601.477-16.125.993-23.657 1.276-5.4.202-8.566 2.576-9.034 8.137-.062.744-.44 1.457-.571 2.201-2.231 12.671-.781 14.904 11.641 17.878 3.318.794 6.643 1.565 9.983 2.262 3.142.653 6.308 1.192 9.415 1.771 4.851 25.261-18.528 67.227-46.691 82.929-4.449-8.043-9.047-16.034-13.335-24.188-6.112-11.62-10.878-12.529-20.624-3.575-3.832 3.521-5.328 7.762-3.619 12.848a442.82 442.82 0 0 0 3.577 10.198c1.208 3.329 2.485 6.636 3.951 10.536zM630.731 259.125c-2.83-1.427-5.148-2.629-7.496-3.772-5.767-2.807-7.646-1.912-9.086 4.469-1.13 4.995-2.081 10.03-3.189 15.029-.217.984-.785 1.891-1.192 2.833l-1.569-.263c.469-4.246.901-8.496 1.416-12.736.388-3.192.524-6.475 1.407-9.533 1.41-4.882-.932-7.013-5.032-8.503-6.393-2.323-8.657-1.166-9.85 5.595-1.139 6.457-2.071 12.949-3.094 19.426l-1.532-.072c.358-4.76.686-9.522 1.09-14.278.191-2.257.648-4.494.781-6.752.445-7.601-3.498-12.161-10.854-11.25-2.272.281-5.212 3.69-5.947 6.219-1.894 6.516-2.725 13.34-4.053 20.422l-7.776-2.062c1.605-6.006 3.132-11.798 4.705-17.579 2.134-7.84 1.438-8.972-6.642-10.923-8.055-1.944-16.098-3.941-24.454-5.991 1.419-8.288 2.68-16.102 4.104-23.885 4.052-22.131-3.228-37.644-23.384-47.166-7.427-3.508-15.802-5.013-23.755-7.397-1.416-.424-2.883-.679-4.213-.985-1.719-20.877-2.908-18.929-11.04-31.307 7.421.562 14.099.833 20.716 1.612 25.135 2.961 49.612 8.621 73.511 17.13 11.704 4.168 19.979 11.935 27.498 21.19 23.667 29.132 32.134 62.656 28.93 100.529zM417.577 780.502c-1.107 16.599 2.368 31.415 14.584 45.004-41.159-1.834-78.336-12.498-113.363-31.132-35.127-18.687-64.595-43.815-86.724-77.586 1.493.829 3.017 1.609 4.475 2.497 26.136 15.934 53.45 19.485 82.346 8.195 1.969-.771 5.585-.491 6.952.831 25.43 24.604 55.882 40.336 89.167 51.187.709.231 1.391.543 2.563 1.004zm-58.221 10.675c8.068-.035 12.696-4.741 9.226-8.71-4.84-5.534-10.713-10.682-17.16-14.051-2.669-1.395-9.146 1.126-11.742 3.887-2.69 2.859-.222 7.361 2.683 10.549 4.863 5.335 10.908 7.877 16.993 8.325zM536.056 321.544c-6.469 3.096-9.931 8.162-10.187 16.716-12.529-2.097-24.772-4.013-36.961-6.231-8.387-1.526-9.315-.698-7.055 7.374 1.355 4.835 3.04 9.131 8.106 11.698 4.27 2.164 7.535 13.412 6.808 18.218-.281 1.857.801 4.551 2.188 5.932 13.058 13 26.338 25.778 39.504 38.669 3.177 3.111 5.701 2.061 8.099-.898 5.008-6.18 10.008-12.365 14.914-18.427 11.558 6.021 22.693 12.081 34.082 17.622 4.381 2.131 9.255 3.446 14.044 4.501 17.42 3.837 25.275-1.146 29.336-18.769 1.438 1.618 2.838 2.833 3.801 4.33 7.469 11.615 15.194 23.086 22.166 34.995 6.221 10.626 2.439 21.498-9.64 24.872-8.507 2.378-18.105 3.058-26.866 1.88-21.913-2.945-41.711-12.278-60.479-23.676-30.106-18.283-56.002-41.247-75.028-71.07-6.338-9.935-10.934-21.155-15.099-32.249-3.342-8.899-1.78-18.202 4.031-25.939 1.837-2.446 6.238-5.194 8.678-4.595 15.363 3.771 30.505 8.447 45.719 12.823l-.161 2.224zM529.993 786.321c11.259 6.983 20.485 4.881 34.338-6.902l-4.988 8.331 8.21 1.929c-15.389 9.607-31.348 16.188-48.076 21.259 3.145-1.581 6.365-3.029 9.412-4.778 3.065-1.761 5.959-3.82 9.733-6.272-2.168-1.224-3.33-2.058-4.619-2.581-10.75-4.367-14.534-10.739-13.042-22.141.147-1.128.379-2.247.606-3.362 2.208-10.846 2.055-11.04-9.099-12.445-4.7-.592-9.456-.966-14.066-1.982-5.676-1.252-8.51 1.013-10.066 6.288-5.457 18.493-5.469 36.242 6.73 52.53-11.269-.115-18.244-6.869-18.554-17.989-.479-17.133 6.642-31.682 15.729-45.526 1.246-1.899 2.609-3.722 4.193-5.971 8.679 3.079 17.348 6.228 26.066 9.23 9.883 3.403 12.438 2.601 19.06-5.707 2.014-2.525 4.041-5.05 5.888-7.696 4.688-6.718 3.863-9.547-3.319-13.394-6.964-3.728-13.797-7.701-22.437-12.547 11.263-8.563 20.864-16.536 31.134-23.528 19.808-13.486 40.309-26.16 63.349-33.127 11.583-3.503 24.2-4.619 36.383-4.832 13.454-.235 21.136 16.848 14.667 29.692-8.611 17.099-20.582 31.818-32.161 46.84-3.327 4.317-6.644 8.643-10.529 12.617 12.492-21.059 24.785-42.162 34.646-65.491-9.665-.409-18.008-.269-26.606 2.355-6.312 1.927-13.658 2.116-20.247 1.119-10.722-1.625-17.47 2.837-22.8 11.222-7.847 12.344-15.663 24.705-23.631 36.971-10.243 15.767-20.649 31.429-30.919 47.179-1.832 2.805-3.344 5.82-4.985 8.709z"/>
    <path d="M621.707 302.075c-14.596 8.109-27.784 15.584-41.181 22.665-1.41.746-4.308-.381-6.079-1.399-24.552-14.096-50.61-24.334-78.264-30.318-36.297-7.854-72.73-8.518-109.14-.761-5.897 1.257-10.101.341-14.604-4.097-8.622-8.499-18.072-16.159-26.978-24.821 93.593-1.405 185.117 11.276 276.246 38.731zM525.888 253.082l-108.603-13.374c2.643-14.1 5.331-28.763 8.233-43.383.256-1.288 1.699-2.874 2.956-3.344 9.958-3.726 20.004-7.213 28.901-10.376-8.872 18.483-6.279 33.277 8.96 45.354 13.337 10.568 32.353 11.071 44.309 1.172 12.319-10.201 15.665-27.996 8.083-42.993-8.288-16.394-23.793-20.672-50.601-13.903.322-.533.536-1.052.89-1.447 14.034-15.688 25.336-17.068 46.791-5.734 17.205 9.089 22.682 19.622 19.401 39.152-2.754 16.403-6.206 32.688-9.32 48.876zM691.837 510.691c7.541 33.244 7.642 66.604 1.117 99.341l-43.284-8.447c7.618-27.301 3.374-55.547-1.023-83.478l43.19-7.416zm-24.142 53.248c1.778 5.097 2.578 9.969 5.088 13.686 1.693 2.507 5.961 4.871 8.782 4.566 2.781-.299 6.149-3.551 7.582-6.362 4.058-7.952 3.638-16.315-.026-24.468-3.083-6.856-10.451-8.267-14.842-2.153-3.052 4.249-4.42 9.71-6.584 14.731zM351.94 196l34.756-46.737 1.744.26c.388 25.555 15.961 34.52 37.174 36.382l-8.095 7.566c-20.734-4.053-42.647-2.503-64.269 4.052L351.94 196z"/>
    <path d="M472.12 182.976c-2.629 12.305 2.093 19.649 13.351 21.305 10.493 1.543 18.542-5.884 19.668-18.148 8.396 6.428 9.068 19.168 5.963 27.194-3.823 9.885-12.432 14.494-24.28 13.375-10.997-1.04-21.517-9.78-23.279-20.316-1.443-8.626-1.733-18.79 8.577-23.41zM386.383 324.96l1.537-19.155 36.619-5.575c-1.499 7.695-2.722 14.317-4.152 20.894-.177.814-1.413 1.936-2.221 1.991-10.337.699-20.684 1.23-31.783 1.845zM529.653 662.487c-11.863 8.815-24.489 16.266-34.674 26.215-15.441 15.085-29.172 31.921-43.675 47.971-1.306 1.445-2.944 2.59-4.43 3.875l-1.444-1.228c.99-1.906 1.817-3.919 2.993-5.703 19.307-29.289 43.967-53.188 73.062-72.66 3.828-2.561 6.499-2.613 8.168 1.53zM352.522 235.466l2.684-18.257c2.815 1.376 3.495 7.117 1.894 16.083-.225 1.257-1.802 2.271-2.754 3.399l-1.824-1.225zM620.544 549.384c5.355 5.573 6.616 14.244 3.192 20.008-1.688 2.842-3.514 2.315-5.354.228-3.898-4.423-2.779-15.934 2.162-20.236zM396.107 707.245c8.254-.604 16.604 6.387 16.972 13.838-7.486 1.146-15.775-5.45-16.972-13.838zM371.726 358.08c2.77 1.071 5.261 1.419 6.758 2.824 1.041.977 1.586 3.999.849 5.083-2.739 4.028-13.159 4.856-16.38 1.362-.768-.833-.568-3.98.275-4.614 2.603-1.955 5.731-3.211 8.498-4.655zM345.245 775.073c7.562.176 13.627 2.318 17.878 8.74-5.916 2.749-14.768-1.468-17.878-8.74zM352.458 489.292l-29.639-36.706 7.755-6.687c12.03 8.921 20.418 20.52 26.624 33.602.867 1.83-2.684 5.756-4.74 9.791zM276.673 588.488c-1.12 4.671-2.064 10.702-4.043 16.372-2.949 8.45-9.975 10.011-16.419 3.743-10.034-9.761-14.308-22.392-15.229-35.856-.546-7.985.207-16.404 2.242-24.137 2.654-10.084 8.833-11.252 16.128-3.884 11.588 11.702 15.273 26.689 17.321 43.762zM681.909 552.17c5.099 7.287 5.957 14.519 1.574 21.855-.644 1.077-3.708 2.033-4.561 1.449-6.147-4.204-4.114-20.154 2.987-23.304z"/>
  </g>
</svg>
