<svg xmlns="http://www.w3.org/2000/svg">
    <path fill="#1d1d1b" d="M35.8 18.82a.71.71 0 0 0-.9-.54c-.42.1-.82.85-.18 1.19a.72.72 0 0 0 1.08-.65zM24 17.93c.06-.22-.47-2.53-.5-2.78s-.34 0-.53.09a12.62 12.62 0 0 0 .24 2.76s.79.15.79-.07zm-3.34 3.34A25 25 0 0 1 23 19.93c.22-.09.75 1.84.75 1.84a5.22 5.22 0 0 0 .91-.31 8.32 8.32 0 0 0-.75-2.62 4.37 4.37 0 0 0-1.94.53 8.82 8.82 0 0 0-2 1.5l.13.78a3 3 0 0 0 .57-.37zm15.19-7.19c.91.16 2.16.63 2.28.53s0-.41-.06-.56-.47-.44-1.66-.69a13.2 13.2 0 0 0-2.41-.3c-.12 0 .19.78.28.88s.72-.01 1.58.15zm4.78 5.09c.13 0-.06-.62-.16-.81a5.35 5.35 0 0 0-1.84-.47s0 .69.16.84a8.29 8.29 0 0 0 1.85.45zm-1.56 1.19a8.29 8.29 0 0 0 1.84.44c.13 0-.06-.62-.16-.81a5.35 5.35 0 0 0-1.84-.47s.01.69.17.85zM20.64 43.65a9.19 9.19 0 0 1 .36 1.06c0 .16-1.31.72-1.19 1.16a7.85 7.85 0 0 0 4 3.81 3.81 3.81 0 0 0 3.9-.68 16.7 16.7 0 0 0-.41-1.84l1.13-.47s.78 1.66.91 1.78 1.72-.22 3.44-2.44a6.7 6.7 0 0 0 1.09-5.31c-.09-.28-2.09 0-2.09 0L31 39.5s1-1.16 1.06-1.25-.06-1.75-2.7-2.79a5.11 5.11 0 0 0-4.91.34c-.34.31.19 1.16.22 1.25s-1 .63-1.09.56a7.19 7.19 0 0 1-.47-1.09c-.09-.16-1.66.25-3.34 2.72a4.52 4.52 0 0 0-.66 4.5c.03.16 1.53-.09 1.53-.09zm0-3.62c.53-1 1.25-2.06 1.72-2.22 0 0 .66 1.06.84 1.09a10.33 10.33 0 0 0 2.63-1 6.2 6.2 0 0 0-.19-1.66 3.54 3.54 0 0 1 3.06 0c1.75.78 1.88 1.56 1.88 1.56s-1 1.38-.91 1.5 1.5 2.41 1.5 2.41a11.78 11.78 0 0 1 1.81.13 5.34 5.34 0 0 1-1 3.22 5.87 5.87 0 0 1-2.12 2.09s-.78-1.5-1-1.5-2.59.75-2.59 1.09.28 2.06.28 2.06a3.32 3.32 0 0 1-3.55-.87c-1.84-1.69-2.09-1.91-1.84-2s1.19-.75 1.19-1a15.71 15.71 0 0 0-.62-2.12c-.06-.09-1.84 0-1.87-.09a8.62 8.62 0 0 1 .78-2.72zm8.69 2.34a2.65 2.65 0 0 0-4-2.66c-.87.47-1.87 1.09-1.28 3.63s5.19 1.66 5.28-.97zm-3.45-1.66a1.55 1.55 0 0 1 2.32 1.55c-.05 1.53-2.72 2-3.07.57s.24-1.83.75-2.12zm24.78-7.12c-1.67-4.42-9-8.58-9-8.58L43 23.42s1.33-1.83-.5-6.79S37 10.3 37 10.3s0-7.3-.17-7.54-4.08.17-4.21.33.5 6 .5 6A9.35 9.35 0 0 0 32 8.92l-1.29-.12a13.41 13.41 0 0 0-.46-2.8c-.25-.33-3 .42-3.12.67a10.42 10.42 0 0 0 .42 2.5s-6.71 2.29-9.33 7.54a9.92 9.92 0 0 0 .58 9.75c-6.64 4.67-7.72 15.92-6.34 20.54S18.58 60.46 30 61.26s17-5.59 20-10.88 2.33-12.38.66-16.79zm-5-3.22c.25.09 1.84 1.66 1.66 1.72s-4.87 1.19-8.28-1-4.41-4.78-4.25-5.87a7.28 7.28 0 0 1 1.41.25 7.2 7.2 0 0 0 4 4.13 11.65 11.65 0 0 0 5.47.77zM33.79 19.71a1.35 1.35 0 0 1 .5-2.08 1.63 1.63 0 0 1 2.17 1.79c-.34 1.09-2.34.88-2.67.29zM41.71 27c2.16 1.16 2.59 2.19 2.59 2.19a6 6 0 0 1-4.19-.91 5.37 5.37 0 0 1-2.34-2.66A11.73 11.73 0 0 1 41.71 27zM34 3.84c.12-.12 1.75-.37 1.75-.09s.19 6.09 0 6-1.41-.28-1.44-.41-.42-5.44-.31-5.5zm-5.7 3.69c.16-.09 1.09-.5 1.16-.28s.34 1.59.19 1.59h-1.1s-.41-1.22-.25-1.31zm-7.51 8.65c2.67-3.92 6-5.5 10.88-5.42s7.63 2.71 8.63 5.54 1.5 6 1.25 6.21-.87-.17-2.12-.71a25.73 25.73 0 0 0-2.71-1s2-1.71.29-3.5-4.62-.37-5 .88.83 2.58.83 2.58a15 15 0 0 0-7.54 1 32.74 32.74 0 0 0-5.37 2.67 9.52 9.52 0 0 1 .86-8.26zM15.3 47a2.46 2.46 0 0 0-.66.63 16.38 16.38 0 0 1-.78-4.09 12.94 12.94 0 0 1 .34-4.06.53.53 0 0 0 .47.47 1.82 1.82 0 0 0 1-.25 10.34 10.34 0 0 0-.44 4 19.5 19.5 0 0 0 .91 3.3 1.07 1.07 0 0 0-.84 0zm6.13 8c-.16-.09 0-.5.16-.59s.44.28.25.47-.26.21-.42.12zm15.94 3.47a4.52 4.52 0 0 1-.72.34s-2.65-3.35-2.82-3.35-.53.38-.5.47A35.62 35.62 0 0 1 35.86 59c-.19.06-1.59.13-1.59.13a19.65 19.65 0 0 0-2-2c-.19 0-.66.53-.56.69s1.41 1.31 1.22 1.41a12.93 12.93 0 0 1-1.84.06s-.19-.78-.47-.81a3.21 3.21 0 0 0-.75.06s0 .72-.09.72a11.41 11.41 0 0 1-5.09-1.06 9.44 9.44 0 0 1-3.06-2.12s1.56-.75 1.19-1.59-1-1.19-1.56-1.06-1 1.72-1 1.72a12.17 12.17 0 0 1-3-2.94 10.68 10.68 0 0 1-1.69-2.81 1.33 1.33 0 0 0 .75-.41 2.21 2.21 0 0 0 .5-.72A9.48 9.48 0 0 0 22.36 52c4 1.19 7.31.88 10.19-1.16s5.66-7.06 4.63-11.5a10.43 10.43 0 0 0-7.37-7.5 15.16 15.16 0 0 0-9.5 1.84 18.58 18.58 0 0 0-3.84 4.13 9.06 9.06 0 0 1-1.47-.5c-.09-.09.78-5.28 2.91-7.38s7.09-6.5 14.61-5.03c.18 0 .25 5.53 5.69 7.59a22.11 22.11 0 0 0 10.16 1.19 9 9 0 0 1 .88 2.78c-.09.16-1.5.16-1.56.94s.47 1.53.84 1.5a6 6 0 0 0 1.16-.34l.16 1.22a8.37 8.37 0 0 0-7.62 3.28 31.61 31.61 0 0 0-4.62 9 14.32 14.32 0 0 0-.28 1.47S36.27 51.87 36 52s-.75.19-.59.41l2 2.88a11 11 0 0 0 .22 1.47c.13.41.5 1.31.5 1.31s-3.09-4.66-3.31-4.56-.59.44-.56.59 3.26 4.24 3.1 4.36zM25.86 33.31c4-.55 8.69.84 9.44 7a9.27 9.27 0 0 1-6.59 10.28c-3 .88-8.59.06-10.53-4.31a9.46 9.46 0 0 1 7.68-12.97zm23.41 13.4a4.52 4.52 0 0 1-.59 1.53s-1.68-1.93-1.91-1.87-.59.5-.47.69 2 1.63 1.91 1.84-.41 1.06-.5 1-1.56-1.62-1.78-1.59-.69.41-.56.59 2.13 1.63 1.88 2-.37.53-.37.53a13.33 13.33 0 0 0-1.78-1.72 1.27 1.27 0 0 0-.41.84c.06.16 1.56 1.53 1.47 1.66s-.22.47-.34.44-1.09-1.06-1.22-1-.47.75-.31.91.88.66.88.81A12 12 0 0 1 43.61 55a9.06 9.06 0 0 1 1.06-7.09A14.06 14.06 0 0 1 48 44.12a5.49 5.49 0 0 1 1.72-.62 18.66 18.66 0 0 1-.45 3.21zm.56-4.19a6.48 6.48 0 0 0-5.19 3.25A14.67 14.67 0 0 0 42 52.9c0 1 .5 3.06.31 3.19a13 13 0 0 1-2.09.88 10.75 10.75 0 0 1 .63-8.69 14.21 14.21 0 0 1 6.66-6.62 15.8 15.8 0 0 1 2.38-.28zM29.24 54.71c-.44.59-.94 1.72.47 2.22a1.34 1.34 0 0 0 1.78-1.75 1.38 1.38 0 0 0-2.25-.47zm.76 1.46c-.56-.2-.36-.64-.19-.88a.55.55 0 0 1 .89.19.53.53 0 0 1-.7.69zm-9-26.83c-.44.59-.94 1.72.47 2.22a1.34 1.34 0 0 0 1.78-1.75 1.38 1.38 0 0 0-2.25-.47zm9.4-.6c-.34.46-.73 1.33.36 1.72a1 1 0 0 0 1.38-1.36 1.07 1.07 0 0 0-1.72-.36zm8.21 6.88A1 1 0 0 0 40 34.26a1.07 1.07 0 0 0-1.74-.36c-.34.46-.72 1.33.37 1.72zm-2 14.22A1 1 0 0 0 38 48.48a1.07 1.07 0 0 0-1.74-.36c-.34.46-.72 1.33.37 1.72zm2.11-12.31c-.44.59-.94 1.72.47 2.22A1.34 1.34 0 0 0 41 38a1.38 1.38 0 0 0-2.26-.47zm1.46.76a.53.53 0 0 1-.71.69c-.56-.2-.36-.64-.19-.88a.55.55 0 0 1 .92.19zm5 1c.27-1-.53-1.79-1.29-1.45s-1.62 1-.93 2.05 1.95.35 2.22-.6zm-1.18-.7c.3-.13.62.2.51.57s-.61.67-.88.24.08-.7.37-.81zm2.77-2a1.07 1.07 0 0 0 .33-1.91c-.62-.32-1.77-.65-2.18.56s.9 1.76 1.81 1.39zm-1.08-1.17c.16-.48.62-.35.87-.22a.42.42 0 0 1-.13.76c-.43.19-.94-.02-.78-.5zm-18.4-17.83a3.38 3.38 0 0 0 5-3c-.17-1.75-2.18-3-4.21-2.54s-3.79 3.95-.79 5.54zm1.14-4.53a2.2 2.2 0 0 1 2.77 1.67 2.22 2.22 0 0 1-3.32 2c-1.97-1.07-.73-3.37.55-3.67z"/>
</svg>
