<svg xmlns="http://www.w3.org/2000/svg">
    <g fill="#555">
        <circle cx="12" cy="15" r="2" style="fill: #ffa500;"/>
        <path d="M15.686 6.798c1.204-.14 1.888-.301 1.935-.313A.5.5 0 0 0 18 6c0-3.309-2.691-6-6-6a5.969 5.969 0 0 0-4 1.54V.5a.5.5 0 1 0-1 0v2.19C6.37 3.64 6 4.777 6 6a.5.5 0 0 0 .379.485c.047.012.731.174 1.935.313C5.186 8.21 3 11.352 3 15c0 4.962 4.038 9 9 9s9-4.038 9-9c0-3.648-2.186-6.79-5.314-8.202zM17.05 15.5h-2.102a2.994 2.994 0 0 1-2.449 2.45v2.1a2.998 2.998 0 0 1 2.44 2.383 7.918 7.918 0 0 1-.967.31A1.994 1.994 0 0 0 12 21a1.996 1.996 0 0 0-1.974 1.743 7.93 7.93 0 0 1-.965-.31 2.998 2.998 0 0 1 2.439-2.382v-2.102A2.994 2.994 0 0 1 9.05 15.5h-2.1a2.998 2.998 0 0 1-2.383 2.44 7.916 7.916 0 0 1-.31-.967A1.994 1.994 0 0 0 6 15a1.996 1.996 0 0 0-1.743-1.974 7.93 7.93 0 0 1 .31-.965A2.998 2.998 0 0 1 6.949 14.5h2.102a2.994 2.994 0 0 1 2.449-2.45v-2.1a2.998 2.998 0 0 1-2.44-2.383c.313-.124.637-.226.967-.31A1.994 1.994 0 0 0 12 9a1.996 1.996 0 0 0 1.974-1.743c.33.084.653.186.965.31A2.998 2.998 0 0 1 12.5 9.949v2.102a2.994 2.994 0 0 1 2.45 2.449h2.1a2.998 2.998 0 0 1 2.383-2.44c.124.313.226.637.31.967A1.994 1.994 0 0 0 18 15c0 1.015.763 1.847 1.743 1.974a7.93 7.93 0 0 1-.31.965 2.998 2.998 0 0 1-2.382-2.439zM13.5 4a.5.5 0 1 1 0 1 .5.5 0 0 1 0-1zM12 2c.551 0 1 .449 1 1s-.449 1-1 1-1-.449-1-1 .449-1 1-1z"/>
    </g>
</svg>
